<svg id="Layer_1" data-name="Layer 1" xmlns="http://www.w3.org/2000/svg" viewBox="0 0 300 300"><defs><style>.cls-1{fill:#fff;}.cls-2{fill:#f8faf9;}.cls-3{fill:#f7f9f8;}.cls-4{fill:#f8faf8;}.cls-5{fill:#f5f7f6;}.cls-6{fill:#f8faf7;}.cls-7{fill:#c3e1ca;}.cls-8{fill:#b0d9c3;}.cls-9{fill:#d7ebdf;}.cls-10{fill:#8ac693;}.cls-11{fill:#89c691;}.cls-12{fill:#ecf5f0;}.cls-13{fill:#eef6f3;}.cls-14{fill:#8ac692;}.cls-15{fill:#eff6f3;}.cls-16{fill:#d2e8d6;}.cls-17{fill:#8dc68b;}.cls-18{fill:#83c17d;}.cls-19{fill:#f0f7f1;}.cls-20{fill:#e8f3eb;}.cls-21{fill:#f3f8f3;}.cls-22{fill:#d9ebd9;}.cls-23{fill:#f2f7f4;}.cls-24{fill:#ebf5f2;}.cls-25{fill:#eef6ef;}.cls-26{fill:#d9ead3;}.cls-27{fill:#d7eadf;}.cls-28{fill:#d3e8d6;}.cls-29{fill:#ecf5f4;}.cls-30{fill:#f1f7f0;}.cls-31{fill:#edf5ed;}.cls-32{fill:#ddedde;}.cls-33{fill:#f8f8f7;}.cls-34{fill:#8ac58f;}.cls-35{fill:#f9f9fa;}.cls-36{fill:#151922;}.cls-37{fill:#181c22;}.cls-38{fill:#f4f8f6;}.cls-39{fill:#171b23;}.cls-40{fill:#191d27;}.cls-41{fill:#171b25;}.cls-42{fill:#181b24;}.cls-43{fill:#141821;}.cls-44{fill:#1b1c23;}.cls-45{fill:#171b22;}.cls-46{fill:#1b1e28;}.cls-47{fill:#1e212b;}.cls-48{fill:#20242b;}.cls-49{fill:#f4f5f2;}.cls-50{fill:#f2f5ee;}.cls-51{fill:#e6f2ed;}.cls-52{fill:#dfeee5;}.cls-53{fill:#e5f1e9;}.cls-54{fill:#b1d9c1;}.cls-55{fill:#9ecfaa;}.cls-56{fill:#a3d2b3;}.cls-57{fill:#a9d4b6;}.cls-58{fill:#9fcfa4;}.cls-59{fill:#9dcfa8;}.cls-60{fill:#e0eee1;}.cls-61{fill:#a0d0ae;}.cls-62{fill:#90c892;}.cls-63{fill:#e8f3ee;}.cls-64{fill:#e4f0e4;}.cls-65{fill:#8cc68f;}.cls-66{fill:#e3f0ea;}.cls-67{fill:#f3f5f4;}.cls-68{fill:#daece1;}.cls-69{fill:#e4efea;}.cls-70{fill:#edf5f2;}.cls-71{fill:#d7eade;}.cls-72{fill:#a5d2b0;}.cls-73{fill:#b2d9bd;}.cls-74{fill:#202129;}.cls-75{fill:#fafaf9;}.cls-76{fill:#e8ebef;}.cls-77{fill:#c4e2d0;}.cls-78{fill:#d1e7d6;}.cls-79{fill:#f8f9f9;}.cls-80{fill:#eef2f6;}.cls-81{fill:#edf0f5;}.cls-82{fill:#eeeff2;}.cls-83{fill:#e3e4e7;}.cls-84{fill:#d4e9db;}.cls-85{fill:#e7f1e9;}.cls-86{fill:#8ac8a8;}.cls-87{fill:#f0f5f1;}.cls-88{fill:#192125;}.cls-89{fill:#f8f9f7;}.cls-90{fill:#fdf4f5;}.cls-91{fill:#f0f0f2;}</style></defs><path class="cls-1" d="M409.69,271.77q0,64.5.08,129c0,3-.6,3.58-3.57,3.57-30.05-.14-60.1-.09-90.15-.09,1.46-4.28-.85-9,1.38-13.16,3.7-3.48,8.48-5.14,12.84-7.48,18.24-9.8,33.42-23.09,46.38-39.2,13.37-16.62,21.49-35.71,27.16-56,1.55-5.52,1.23-11.52,3.74-16.88A1.78,1.78,0,0,1,409.69,271.77Z" transform="translate(-109.77 -104.34)"/><path class="cls-1" d="M216.44,404.25c-34.28,0-68.56,0-102.83.08-3,0-3.86-.62-3.84-3.78.15-28.32.09-56.64.09-84.95a3.39,3.39,0,0,1,3.76.39c3.07,2.29,5.54,3.69,6.78-1.74.37-1.62,2-1.32,3,.14a3.37,3.37,0,0,1,.35.93c1.11,3.58-.9,8.42,1.37,10.69a17.21,17.21,0,0,1,5.17,9.24c1.12,6.77,4.76,10.88,10.75,13.43.46.19,1,.5,1.14.92a17.72,17.72,0,0,0,9.47,10.65c1.06.53,1.11,2,.64,3.17-.62,1.56-1.76.87-2.92.69-2.86-.45-3.88.87-2.66,3.54,1.37,3,3.79,4.66,7.16,4.22a19.26,19.26,0,0,1,6.9.14c3.26.18,6.38,2.82,9.77.5,2.37-.46,4,.87,5.73,2.21a125.68,125.68,0,0,0,14.48,10.08c2.11,2.79,3.9,6,8,6.27,1,4.27,4.33,6.18,8,7.67,2.67,2.65,6.34,3,9.64,4.21A1,1,0,0,1,216.44,404.25Z" transform="translate(-109.77 -104.34)"/><path class="cls-1" d="M324,104.42c27.56,0,55.12,0,82.68-.07,2.49,0,3.06.57,3.05,3.06-.1,31.54-.06,63.08-.06,94.63a5.36,5.36,0,0,1-6.48-2.17c-2.7-5.26-8-9.53-7-16.36.85-6.19-3.15-9.62-7.41-12.84-1.76-1.33-3.45.67-5.23.38a3.26,3.26,0,0,1-2.83-2.35c-.94-4.6-.21-9.48-2.23-13.91a24.13,24.13,0,0,1-.17-7.35c.51-3.66-1.83-5.76-4.74-7.32a2.61,2.61,0,0,0-2.83,0c-1,.75-.52,1.75-.14,2.67,1.65,4-.13,4.79-3.69,3.91-.74-.41-1.63-.94-1.73-1.69-1-7.34-7.79-9.14-12.28-13.14-.36-.32-.82-.55-1.2-.87-6.84-5.83-9.45-7.21-18.09-9.72-3.31-1-6-3.59-9.64-3.68a5.76,5.76,0,0,1-2.68-.82c-1.53-4.09,4.1-2.69,4.15-5.34,0-2.26-4.2-3.27-2.06-6.34A5.72,5.72,0,0,1,324,104.42Z" transform="translate(-109.77 -104.34)"/><path class="cls-1" d="M109.86,189.09c0-27.15,0-54.29-.08-81.44,0-2.75.54-3.33,3.3-3.31,26.15.13,52.31.08,78.46.08,2.34,2,2.44,5.58,5.1,7.52a1.75,1.75,0,0,1-.7,2.89c-2.61.81-4.27,2.24-4.91,5a2.27,2.27,0,0,1-2.37,1.54c-4.7-.3-8.93,2.53-13.66,2-.65-.08-1.71-.26-1.91.14-2.41,5-9.56,4.3-11.59,9.72a9.72,9.72,0,0,1-1.32,2.1c-3.21,4.58-4.9,5.2-10.34,3.59-1.18-.35-2.34-.69-3.19.37-1.16,1.43.29,2,1.12,2.68,2.69,2.26,1.69,4.28-.37,6.25-3.58,4.5-7.1,9.14-14.07,6.75.46,3.92,2.83,8.2-2.88,10.32-1.32.49-1.37,2.2-1.35,3.54.06,4-1.16,7.86-1.13,11.86,0,2-6.37,8.74-8.23,9-.49.07-1.24.14-1.4-.23-2.23-5.19-4.68-1.07-7-.21A1.78,1.78,0,0,1,109.86,189.09Z" transform="translate(-109.77 -104.34)"/><path class="cls-2" d="M109.86,189.09c1.3-1,2.55-2.1,3.91-3,2.11-1.4,5.22-5.25,4.46,1.6a1.36,1.36,0,0,0,.68,1.1c1,.35,1.56-.19,1.84-1.09A4.75,4.75,0,0,1,125,184a2,2,0,0,0,1.79-2.49c-.52-4.17,1.14-8.14,1-12.28-.07-3-.38-5.46,4-6.47,2.51-.58.94-4.7.17-7.14-.21-.69-1.48-1.06-2.12-1.48,1.52-2.05,2.19-.8,3-.53,4.08,1.29,7.75,1,10.64-2.7,1-1.27,1.39-3.09,3.15-3.7,4.15-.9,4.34,2.21,5,4.89-.13,2.36-1.79,3.86-3.17,5.49a145.06,145.06,0,0,0-29,52.84c-2.75,9.19-3.7,18.88-5.87,28.12-3,12.75.13,24.84,1,37,.78,11,4.38,22,8.61,32.52A151.79,151.79,0,0,0,154,356a25,25,0,0,1,3.86,5.17,8.62,8.62,0,0,1,.17,4.28,2.38,2.38,0,0,1-2.6,1.45,31.06,31.06,0,0,1,4.06,2.06c1.24,1.26,2.44,2.53,1.18,4.44-2.06-.41-4-.88-6.24-.22-3.68,1.05-8.21-1.85-9.42-5.47a5,5,0,0,1,1.13-5.53c2.22-2,3.24,1.42,5.09,1.58-.26-3.75-4.16-6.18-8-4.77,1.1-5.24-.29-8.89-5.79-10.56-2.88-.87-3.72-5.18-7.47-5.15-.19,0-.67-.91-.54-1.13,3-5.23-2.29-8.71-2.76-13.18-7.23-1-2.27-6.69-3.72-9.92-.64-1.43.37-3.29-.72-4.72-.92-.15-1.2.39-1.3,1.09-.26,1.73.45,3.92-1.67,4.84s-3.29-1.06-4.5-2.29c-1.38-1.39-3.37-1.33-4.87-2.33Z" transform="translate(-109.77 -104.34)"/><path class="cls-3" d="M150.79,152.44c-.6-2.32-.95-4.85-4.08-5.19,1.64-1.63,3.37-3.38-.07-4.77-1.54-.62-3.83-.6-2.31-3,1.13-1.77,2.84-4.66,5.45-2.38,4.79,4.16,6.8.67,9.4-2.59,2.45-3.09,3-8.76,9.08-7.38a.5.5,0,0,0,.45-.17c4-8.93,12.84-4.23,19.17-6.6,1.08-.41,2.58-.3,2.52-1.78-.15-3.16,1-4.57,4.3-4.35,1.79.12,1.76-2.14,1-2.25-5.06-.71-2.74-5.12-4.13-7.59h54.78a1.76,1.76,0,0,1,.17,2.17c-4.44,1.94-9.33,1.89-14,2.73-23.12,4.18-43.69,13.67-62.31,27.84a100.31,100.31,0,0,0-9.65,8.49c-1.95,1.55-3.78,3.23-5.58,4.95C153.85,151.68,152.85,153.34,150.79,152.44Z" transform="translate(-109.77 -104.34)"/><path class="cls-4" d="M206.47,399.28c-4.36-.95-8.6-2-8-8,1.31-1,2.58-.45,3.54.44,4.76,4.43,10.55,4.56,16.5,4.14,6.93.35,13.37,3.17,20.2,4,4.8.07,9.64-.28,14.36.93,7.33,1.88,14.47-.23,21.68-.91,12.93-.49,25.22-3.89,37.33-8.13,1.9-.67,3.86-2.24,5.94-.3a11.36,11.36,0,0,0-.22,5.2c.5,2.61,1,5.6-1.79,7.59H216.44v-1C213.13,401.89,209.34,401.74,206.47,399.28Z" transform="translate(-109.77 -104.34)"/><path class="cls-5" d="M383.65,170.22c3.06-2.24,4.74-1.29,8.05,1,6,4.18,6,9,5.45,15a6.23,6.23,0,0,0,2,4.9c.84.79,2.06,1.69,2.16,2.64.54,5.13,4.4,6.72,8.34,8.33v37.85a1.78,1.78,0,0,1-2.24.11,4.4,4.4,0,0,1-.93-2.21c-.93-15.9-6-30.66-12.42-45.06a165.2,165.2,0,0,0-9.45-18C383.82,173.4,382.63,172,383.65,170.22Z" transform="translate(-109.77 -104.34)"/><path class="cls-6" d="M324,104.42c-.45,1.81-.55,3.29,1.32,4.7,3.34,2.52,3,3.91-1.19,5.18-1.34.41-2.51.71-3.11,2.06a4.12,4.12,0,0,1-3,1.27c-3.71.37-6.61-1.94-9.81-3.13-8.4-3.15-17.36-4-25.84-6.76a7,7,0,0,1-2.23-1,1.7,1.7,0,0,1,0-2.27Z" transform="translate(-109.77 -104.34)"/><path class="cls-7" d="M407.86,239.79l1.83.1v31.88l-1.94.06c-2.28-2.45-1.3-5.47-1.47-8.29,0-6.09,0-12.19.05-18.27C406.35,243.33,406,241.25,407.86,239.79Z" transform="translate(-109.77 -104.34)"/><path class="cls-8" d="M246.15,106.21l.17-1.79h23.91a1.69,1.69,0,0,1-.38,2.55C261.91,107.92,254,109.2,246.15,106.21Z" transform="translate(-109.77 -104.34)"/><path class="cls-9" d="M270.35,106.18l-.12-1.76h10l0,1.93C276.89,108.52,273.6,108.67,270.35,106.18Z" transform="translate(-109.77 -104.34)"/><path class="cls-10" d="M407.65,263.78q.06,4,.1,8c-1.92,18-7.48,34.82-15.75,50.91-11.72,22.79-28.53,40.81-49.63,55.13-7.73,5.26-16.21,9.07-24.31,13.6-5,1.6-9.86,3.48-14.9,4.75-9.19,2.33-18.3,5.24-28,5.05-1.29-1.76-4.06-.15-5.19-2.28,1-2.41,3.4-2.14,5.31-2.8,11.9,0,23.06-3.38,34.06-7.46,10.64-3,19.8-8.88,29.14-14.54,7.4-4.48,13.45-10.59,20.29-15.74,3.41-1.7,5.51-4.67,7.5-7.75,11.36-12.29,20-26.33,26.72-41.58a145.15,145.15,0,0,0,7.45-23.38,12.42,12.42,0,0,1,.41-2.27A32.14,32.14,0,0,0,402.46,272a13.21,13.21,0,0,1,.36-2.35c1-2.09,0-5,2.57-6.42A2.44,2.44,0,0,1,407.65,263.78Z" transform="translate(-109.77 -104.34)"/><path class="cls-11" d="M238.37,400.94c-5-.08-9.61-2-14.43-2.94a28.45,28.45,0,0,0-5.35-.8,83.72,83.72,0,0,1-28.08-11.71c-5.65-2.3-10.22-6.26-15.07-9.78-1.43-1-2.6-2.65-4.69-2.42-4.91-3-9.89-5.87-13.14-10.87-11.2-12.19-21.62-25.1-29.48-39.65-4.73-8.76-8-18.44-10.91-28a146.25,146.25,0,0,1-5.86-45.39c.22-10.77,2.21-21.49,5-32.09A162.55,162.55,0,0,1,128,186a143,143,0,0,1,21.58-31.5c.56-.64,1.16-1.15,1.21-2.05,3.6-1.58,5.18-5.55,8.63-7.31,1.31-.41,2.06.25,2.59,1.35,0,3.52-2.45,5.69-4.68,7.88-19.71,19.42-32,42.79-37.39,69.89-2.12,10.71-4.06,21.47-3.69,32.43a130.83,130.83,0,0,0,3.33,25,29.28,29.28,0,0,1,.65,5.42c1.49,5.7,3.21,11.34,5.11,16.92a25.31,25.31,0,0,1,1.49,3.32c3.37,8.23,6.73,16.47,12.32,23.54a14.81,14.81,0,0,1,2.31,4.24c1.75,3.69,4.49,6.62,7.26,9.53a9.75,9.75,0,0,1,.91,1c6.2,6.57,11.46,14.1,19.16,19.17a23.24,23.24,0,0,0,5.19,4c1.77,1.42,3.34,3.11,5.43,4.1,13.53,8.55,27.73,15.6,43.31,19.59,4.91,1.8,9.84,3.47,15.17,3.32,4.35.47,9.13-.73,12.61,3.18-1.84,2-4.26.92-6.42,1.16C242.18,400.46,240.18,399.91,238.37,400.94Z" transform="translate(-109.77 -104.34)"/><path class="cls-12" d="M190.51,385.49l28.08,11.71c-7.75,1.63-14.09-1.52-20.08-5.89C193.39,392.74,191.6,389.59,190.51,385.49Z" transform="translate(-109.77 -104.34)"/><path class="cls-13" d="M157.61,362.42c4.7,3.24,9.34,6.55,13.14,10.87-3.33,4.3-6.73-.32-10.08.07a5.45,5.45,0,0,0-2-4c-1-1.17,0-2.83-1-4C157.42,364.41,156.09,363.45,157.61,362.42Z" transform="translate(-109.77 -104.34)"/><path class="cls-12" d="M206.47,399.28c3.22,1.57,7.37.81,10,4C212.53,403.39,208.76,403.2,206.47,399.28Z" transform="translate(-109.77 -104.34)"/><path class="cls-14" d="M161.87,146.35l-2.45-1.22c24.26-23.34,53.33-35.95,86.73-38.92l24.2,0,9.87.17c11.53,2.19,23.1,4.24,33.89,9.18a22.52,22.52,0,0,0,3.77,1c2.86.94,5.83,1.61,8.51,3a143.8,143.8,0,0,1,37.72,26.09c3.27,3.68,7,6.93,10.23,10.66a15.56,15.56,0,0,1,2,1.85c2,3.22,3.77,6.54,5.53,9.87.15,1.11.56,2,1.82,2.16,4.5,7.95,9.17,15.8,12.71,24.24,5.86,13.93,10.82,28.1,11.23,43.44-1.9,1.21.29,4.38-2.49,5.18-2.06-1.25-1.53-3.61-2.32-5.4-.42-12.5-4.53-24.12-8.42-35.8-.58-1.76-1.94-3-2.62-4.72-2.53-7.26-6.28-13.92-10.26-20.46-2-4.29-5.45-7.59-7.75-11.66-.32-.32-.62-.66-.91-1-5.9-8.36-13.63-14.87-21.48-21.25-12.71-10-26.2-18.64-41.73-23.68a97.46,97.46,0,0,0-16.5-5.26q-9.57-1.55-19.14-2.93a94.91,94.91,0,0,0-27.7.22c-10.34,1.54-20.67,2.75-30.55,6.31-6.49,1.82-12.91,3.8-18.6,7.58-11,5-20.72,11.87-30.09,19.35C165.6,145.51,164.2,147.32,161.87,146.35Z" transform="translate(-109.77 -104.34)"/><path class="cls-6" d="M363.75,146.3c-4.84-2.48-8.26-6.77-12.51-10A191.65,191.65,0,0,0,326,120.41c-.71-1.32-3.36-1.63-2.06-4,5.67,2,11.52,3.56,16.94,6.07,3,1.41,5.5,2.78,8.44.09,1.42,7.75,9,14.39,16.14,14.23-2.33,3.63.08,6.43,1.42,9.43l-.51.48A2.24,2.24,0,0,1,363.75,146.3Z" transform="translate(-109.77 -104.34)"/><path class="cls-6" d="M375.66,158.6c-.78-.17-1.6-.28-1.92-1.2a7.82,7.82,0,0,1-.85-2.66c-.3-1.66.91-3.05.85-4.74-1.14-.09-1.11,1.39-2.05,1.52-2.65-.81-4.64-2.21-4.84-5.26h0c1.25-.55,4.93,1.28,2.73-2.63-.8-1.41-2.56-2.61-1-4.25a4.53,4.53,0,0,1,5.93-.5c3.39,2.35,6.86,5.15,4.83,10.11-.81,2,.42,3.5.47,5.25C377.65,155,377.06,157.16,375.66,158.6Z" transform="translate(-109.77 -104.34)"/><path class="cls-15" d="M375.66,158.6c.37-2.41-.91-6.39,4.14-4.37,1.66,4.46,1.76,9.16,2,13.83C379.52,165.08,376.52,162.54,375.66,158.6Z" transform="translate(-109.77 -104.34)"/><path class="cls-16" d="M323.92,116.43c-.1,1.73,2.4,2.12,2.06,4-2.74-1.22-5.9-1.53-8.1-3.86l3.16-.19Z" transform="translate(-109.77 -104.34)"/><path class="cls-1" d="M157.67,365.4c4.47.31.72,2.64,1,4a3.09,3.09,0,0,1-3.14-1.93C155,365.88,156.91,366.07,157.67,365.4Z" transform="translate(-109.77 -104.34)"/><path class="cls-17" d="M238.37,400.94c1.27-3,3.91-1.31,5.92-1.61a50.35,50.35,0,0,1,6.27-.18,29,29,0,0,1,19.42,0c1.75.67,4.52-1.17,5.22,2.11C262.9,404.5,250.65,401.54,238.37,400.94Z" transform="translate(-109.77 -104.34)"/><path class="cls-18" d="M405.6,243.05c1.1-1.55-1.83-4.66,2-5.15l.27,1.89-.21,24h-2A35.13,35.13,0,0,1,405.6,243.05Z" transform="translate(-109.77 -104.34)"/><path class="cls-1" d="M270,399.15H250.56c-4.22-1.7-8.72-1.53-13.13-2a129.5,129.5,0,0,0-15.15-3.66,89.84,89.84,0,0,1-20.05-6.62c-8.26-3.69-16.5-7.69-23.63-13.49-1.72-1.26-3-3.09-5.09-3.85s-4-1.82-4.9-4.07c-1.54-4.65-5.45-7.27-9-10.13-3.82-3.1-7.17-6.7-11-9.81l-.06.08c-1.84-4-5.17-6.78-8-10-1.42-.89-1-2.72-2-3.85,2.39-6.58-3.26-11.05-4.75-16.6-.78-2.88-5.91-4.28-8-7.53l-1.08-2.95a7.16,7.16,0,0,1-1.4-4.62c.67-4.91,1.06-9.62-4.32-12.39-2.1-12.51-4.8-25-4-37.78,1-15.27,3.29-30.33,8.6-44.84,7.49-20.45,18.41-38.6,34.46-53.51,1.52-1.42,2.48-3.44,3.7-5.18,8-5.66,15.7-11.7,24-16.92,3.34-2.09,7-3.38,10.38-5.23,2.91-1,5.75-1.86,6.39,2.72a1.08,1.08,0,0,0,1-.77c1.47-5.15,4.47-7.81,10.2-7.16,2.33.27-1.18-2,.62-2.53,20.43-6.54,41.13-9.75,62.65-6.51,5.66.86,11.25,2.21,17,2.67,3.76,6.62,10.38,5,16.2,5.61a115.34,115.34,0,0,1,41.64,24c5.28,6.54,12,11.93,16,19.47,1.52,2.89,4.35.76,5.9,2.47l.07-.06A39.2,39.2,0,0,0,382,176c5,5.88,7.83,13,10.66,20-1.49,1.74-6.13,3.79.54,4.67,1.33.17,1.18,1.77,1.65,2.79,5.44,11.61,7,23.87,6.19,36.51-.19,2.92.37,5.15,3.3,6.3.76,3.88.26,7.79.32,11.69-.83,4.58-3.43,8.9-2.06,13.82.69,4.06-.58,8-.8,12-.06.62-.12,1.25-.19,1.87-1.68,1.37-1.66,3.51-2.28,5.33-2.09,6.15-3.61,12.47-5.52,18.68-3.91,10.71-10,20.19-16.48,29.48A93.67,93.67,0,0,1,367,351.58a24.8,24.8,0,0,0-7.22,7.66,163,163,0,0,1-40.3,27c-2.93,1.35-5.79,3.09-9.2,3.14-9.37,3-19.26,3.12-28.78,5.31a13.91,13.91,0,0,0-6.25,2.64Z" transform="translate(-109.77 -104.34)"/><path class="cls-19" d="M275.23,397.36a4.76,4.76,0,0,1,4.52-3.89c6.27-.61,12.27-3.24,18.77-2.26,1.63.24,4.48,1.33,4.14-2.72-.14-1.65,2.09-1.38,3-.46,1.38,1.36,3,1.15,4.59,1.38C299.1,394.33,287.6,397.78,275.23,397.36Z" transform="translate(-109.77 -104.34)"/><path class="cls-20" d="M393.79,309.69c-.08-2-.36-3.91,1-5.69a5.23,5.23,0,0,0,.83-2.74c.12-2-4.93-5.33,1.72-5.72.59,0,1.13-4.48,1.31-6.9.16-2,.85-3.08,2.95-3C400,294,397.72,302.12,393.79,309.69Z" transform="translate(-109.77 -104.34)"/><path class="cls-20" d="M403.68,258.8q0-6.44,0-12.89c-1.8-2.77-2.07-5.52.16-8.22.59,1.79,1.19,3.57,1.78,5.36l0,20.73c-1.76,1.74-.18,4.44-1.8,6.21C401.09,266.3,403.16,262.54,403.68,258.8Z" transform="translate(-109.77 -104.34)"/><path class="cls-21" d="M403.68,258.8l.15,11.19c0,.6-.06,1.19-.1,1.78a1.37,1.37,0,0,1-2,0C399.39,267,401.93,263,403.68,258.8Z" transform="translate(-109.77 -104.34)"/><path class="cls-20" d="M401.72,271.77h2c.09,4.13.14,8.26-2,12C400.14,279.81,402.58,275.78,401.72,271.77Z" transform="translate(-109.77 -104.34)"/><path class="cls-22" d="M359.76,359.24c.17-4.66,3.42-6.42,7.21-7.66A18.42,18.42,0,0,1,359.76,359.24Z" transform="translate(-109.77 -104.34)"/><path class="cls-23" d="M125.86,307.62c4.32,3.74,11.88,4.66,11,13-.26,2.39,3.08,2.71,3.76,4.87.59,1.85,3,4-1.18,4.6-.34.05-.54,1.09-.8,1.68C132.25,324.83,129,316.26,125.86,307.62Z" transform="translate(-109.77 -104.34)"/><path class="cls-24" d="M148.67,345.5c6.23,2.69,10.21,8.28,15.55,12.08,2.82,2,5.47,3.81,4.39,7.86a22.41,22.41,0,0,1-9.16-6.94C155.82,354.22,151.17,350.72,148.67,345.5Z" transform="translate(-109.77 -104.34)"/><path class="cls-25" d="M119.06,287.66c.45.19,1.2.26,1.31.57.78,2.09,5.62-1.94,4.44,3-.56,2.37,1.21,4.89-.38,7.24-1.46,2.15.93,4.1.35,6.21C121.38,299.51,121.07,293.3,119.06,287.66Z" transform="translate(-109.77 -104.34)"/><path class="cls-26" d="M222.28,393.47a22.11,22.11,0,0,1,15.15,3.66A32.6,32.6,0,0,1,222.28,393.47Z" transform="translate(-109.77 -104.34)"/><path class="cls-27" d="M140.63,335.6c3.82,2.4,8,4.51,8,10A23.34,23.34,0,0,1,140.63,335.6Z" transform="translate(-109.77 -104.34)"/><path class="cls-28" d="M173.51,369.51c2.89-.3,4.28,1.39,5.09,3.85C176.16,373.05,174.79,371.34,173.51,369.51Z" transform="translate(-109.77 -104.34)"/><path class="cls-21" d="M403.82,237.69q-.07,4.11-.16,8.22c-2.58,1.6-4.29,2-4-2.16s-.11-8.28.1-12.4c.5-10.14-2.76-19.44-6.1-28.75-.34-1-.79-1.25-1.79-1.06-1.51.28-3.76,3.11-4.1-1.13-.25-3.22,1.21-4.61,4.38-4.36a4,4,0,0,0,.49,0C399.12,209.19,403.4,222.92,403.82,237.69Z" transform="translate(-109.77 -104.34)"/><path class="cls-29" d="M373.83,164.18c-4.67,2.13-5.92-.56-8.4-4.21-2.66-3.91-5.24-8.5-9.86-11.12-2.24-1.27-2.27-4.47-3.64-6.61a80.58,80.58,0,0,1,19.86,18.82C372.51,162,374.09,162.55,373.83,164.18Z" transform="translate(-109.77 -104.34)"/><path class="cls-30" d="M214.47,116.46c-.29,1.74,1.9,1.57,2.23,2.84-1.33,1.57-3.11,1.07-4.69,1-3.2-.12-5.51-.13-5.88,4.39-.27,3.31-3.53,4.37-6.92,3.18-.41-2.24,2.23-.93,2.51-2.39-1.4-2-3.67-.7-5.45-1.29C201.75,120.25,208.08,118.28,214.47,116.46Z" transform="translate(-109.77 -104.34)"/><path class="cls-31" d="M310.29,118.23c-3.14-1.08-5.45,2.1-9.47.88-4.27-1.29-6-2.7-6.73-6.49C299.54,114.37,305.31,115.17,310.29,118.23Z" transform="translate(-109.77 -104.34)"/><path class="cls-15" d="M373.83,154.21l-.09,3.19c-3.23-3.78-7.34-6.79-10-11.1l3.1,0,5,5C373.1,151.83,372.9,153.39,373.83,154.21Z" transform="translate(-109.77 -104.34)"/><path class="cls-32" d="M382,176c-5.05-2.37-7.31-6.62-8.08-11.89C377,167.77,380.39,171.29,382,176Z" transform="translate(-109.77 -104.34)"/><path class="cls-1" d="M373.83,154.21a3,3,0,0,1-2-3c.36-1.38.21-3.7,2.44-2.82,2,.8,1.32,2.54.1,4A5,5,0,0,0,373.83,154.21Z" transform="translate(-109.77 -104.34)"/><path class="cls-33" d="M234.37,359.42c-5.23-.6-11.17,1.4-14.78-4.87-1.09-1.91-2-.07-2.21,1.37-.56,3.61-3,3.86-5.93,3.33-8.71-1.57-8.32-1.6-9.11-11-.45-5.33-.79-10.41.91-15.56.77-2.32,1.84-5.33,4.16-4.78,3.11.74,7.2-2.72,9.47,2.09,1,2,2.45,1.55,4,.07,4.59-4.53,10.07-2.7,15.26-1.61,1.24.26,2.25,1.25,3.5.21,3.21-2.67,6.37-2.37,10.43-1.46A50.39,50.39,0,0,0,266,328c6.44-.63,12.91.26,19.44,1.22,5.17.76,5.25,6.71,9.95,6.13.59-2-1.55-2.86-1.3-4.66s.59-3.23,2.84-3.12,4.4-.22,6.43.32c3,.79,5.73,1.4,8.85-.15,1.57-.78,4.32-1.6,5.5,1.33s-.89,3.16-2.9,3.85c-1.44.5-2.3,2.07.06,2.49,4.2.74,3.22,3.52,2.65,6.06a63.92,63.92,0,0,1-2,6.24c-1.93-.4-.88-2.88-2.56-3.36-1.26,4.36-1.14,4.22,2,6.79,1.19,1,1.76,2.74,2.57,4.17.61,1.08.9,2.32-.19,3.17-1.38,1.07-2.07-.44-2.79-1.17a5,5,0,0,0-4.38-1.85,3,3,0,0,1-1.07-1.83c0-5-1.64-10.31,3.08-14.28,0,0-.06-.32-.16-.42a1.14,1.14,0,0,0-.49-.12c-1.91,0-3.72-.06-3.75,2.71,0,2.4-1.38,3.22-3.66,2.3-1.29-1.62-1.83-3.64-2.94-5.35-1.12-2.56-2.6-1.19-4-.37a6.72,6.72,0,0,1-2,.58c-2.85-.48-4.62,2.59-7.42,2.29-3.1-3.45-7.68-1.2-11.23-2.9-1.9-1.23-.73-4.07-2.76-5.22-.45,0-1.47-.95-1.26.16.73,3.77-1.65,4.81-4.45,5.65-2.06.26-4.17.06-6.13,1-2.22,1-4,.23-5.67-1.32-4.86-2.66-7.39-2-9.87,2.43a2.87,2.87,0,0,1-2.06.42,6.67,6.67,0,0,1-2.12-1.17c-2.53-1.82-5.23-1.6-7.79-.24s-2.59,3.84-2.65,6.37,1.22,4.68,2,7C234.39,355.14,236.4,357.07,234.37,359.42Z" transform="translate(-109.77 -104.34)"/><path class="cls-34" d="M242.1,166.12c.1-.93.19-1.86.28-2.78,1.77-.67,3,0,3.8,1.58,1.28,9,.68,18.1.36,27.15-.07,2-.87,3.91-3.23,4.46a2,2,0,0,1-1.8-1.38c-.88-2.51.08-5.22-.81-8.11-2,1.37-2.55,3.41-3.17,5.37a23.57,23.57,0,0,1-4.26,6.24c-1.52,2.11-.42,4.38-.56,6.89,1-2.11-.23-4.65,2.11-5.94,1.59-.16,2.21.87,2.67,2.11.37,1,.26,2.5,1.84,2.53,1.24,0,1.51-1.05,1.68-2.06.52-3.08,1.72-4.51,5-2.52,3,1.86,2.89-.87,2.9-2.51.05-8.39.34-16.78-.15-25.17-.18-3.1,0-6.24-.66-9.32,1.21-1.76,2.74-1.6,4.38-.73,1.66,2.17,1.25,4.74,1.23,7.18-.08,8.27,0,16.55.06,24.82A7.39,7.39,0,0,0,265,200.28c1.39-.82,1.31-2.06,1.19-3.46-.84-10,1.21-20-.08-30.08a5.47,5.47,0,0,1,1.92-4.91c1.71-.73,3.31-1,4.43,1-1.57,12.1-.63,24.2-.2,36.37,2.11-1.72,1.23-4.1,1.66-6.14.35-1.64.58-3.48,2.8-3.43s2.45,1.9,2.68,3.54c.31,2.3.05,4.62.26,6.93.11,1.15.19,2.61,1.34,3,1.92.67,1.76-1.44,2.47-2.36a2.39,2.39,0,0,1,2-1.13c1.65.47,1.44,1.89,1.61,2.94a17.22,17.22,0,0,0-.11-2.71c-1.62-3.83-4.44-6.94-6.3-10.63a3.21,3.21,0,0,0-2.54-2.13c-4-.17-4.45-2.89-4.29-5.87.31-5.7-1.12-11.52,1-17.12a2.72,2.72,0,0,1,3.1-.3c-1.72,12.3,6.11,21,11.83,30.32,3.68,6,1.76,12.1,2,18.17.09,2.13-2.22,1.34-3.55,1.59-3.37-.15-6.12-3.8-9.88-1.76a2,2,0,0,1-.31.84,3.19,3.19,0,0,1-4.43-1.72c-.19-2.62-2-3.44-4.22-4.14-6.81-2.14-13.49-.35-20.19.46-2.21.26-2.47,2.45-3.36,4a2.53,2.53,0,0,1-3.48.81c-.58-2.31-2.16-2.69-4-1.73a9.48,9.48,0,0,1-4,1.53c-2.89,1.76-5.09,1.53-6.1-2.13-.1-6.92-1.06-14,4-19.91a62.94,62.94,0,0,1,7.82-12,1.06,1.06,0,0,0,.24-.8C242.47,173.78,240.27,169.65,242.1,166.12Z" transform="translate(-109.77 -104.34)"/><path class="cls-35" d="M278.08,226.68c-1.12,5.93-1.64,11.93,0,17.77.87,3-.37,3.85-2.74,4.41-2.65-3.34-1.69-8.6-6.89-11.59,6.06,6.52,5.61,12.86,2.28,19.5a88.77,88.77,0,0,1-7.38,12.94c-2.44,3.34-3.75,3.43-6,.26a74.17,74.17,0,0,1-7.62-12.8c-3.09-6.84-4.26-13.59,2.34-20.2-1.81.76-2.64,1.42-3.72,1.05a9,9,0,0,1-.05-9,3.12,3.12,0,0,1,3.1-1.09,54.93,54.93,0,0,0,22.85-1.47A4.68,4.68,0,0,1,278.08,226.68Z" transform="translate(-109.77 -104.34)"/><path class="cls-36" d="M201,309.35c1.37-6.51,2.66-11.31,3.31-16.2.44-3.23,2.34-3.25,4.54-2.95,3.32.45,1.48,2.7,1.11,4.13-1.61,6.23-3.59,12.36-5,18.63-.65,2.85-2.16,3.08-4.54,3.19-2.58.12-2.91-1.32-3.32-3.25-.89-4.3-2-8.57-3.09-13.41-2.06,4.61-2.37,9.1-3.39,13.38-.49,2.07-1.08,3.13-3.45,3.26-2.66.14-3.87-.86-4.5-3.3-1.66-6.38-3.5-12.72-5.09-19.12-.26-1-2.29-3,.53-3.44,2.09-.29,4.75-1,5.38,2.57a97.58,97.58,0,0,0,3.71,15c1.06-4.79,2.34-9.54,3.12-14.38.4-2.49,1.62-2.77,3.67-2.78s3.21.61,3.61,3C198.44,298.52,199.69,303.31,201,309.35Z" transform="translate(-109.77 -104.34)"/><path class="cls-37" d="M278.08,226.68c-9.67,4-19.67,3.79-29.77,2.38-4.71-.85-6.84-3.43-6.09-8.4a66,66,0,0,0,.25-8.33l3-1.27c6.65-4.66,22-4.68,28.75-.05l3.94,1.92Q278.12,219.8,278.08,226.68Z" transform="translate(-109.77 -104.34)"/><path class="cls-38" d="M268.14,337.56c2.34-.95,4.77-1.81,2.4-5.05-.46-.62-.48-1.83.27-2.21,1.39-.72,2,1.53,3.37,1.23,1.77,3.55,1.08,7.41,1.4,11.15.25,2.94-.58,6,.68,8.82.54.53,1.22.87,1.79,1.36a2,2,0,0,1,.57,2l-.46.59c-2,1.77-3.35,1.79-7.38,2s-8.22,1.82-12.3-.36c-.38-.2-1.27.17-1.7.53-2.72,2.29-4.76,3.6-3.91-1.86.26-1.72-1.52-1.22-2.55-1.38a3.19,3.19,0,0,1-1-1.4c-.48-3.67-.83-7.33.31-10.94a2.28,2.28,0,0,1,1.91-1.14c2.54.93,3.71,2.54,2.75,5.35-.78,2.31.48,3,2.56,2.87.8.32,1.13,1.12,1.88,1.87.64-2.67-.11-5.34.75-7.81,1.29-2.44,2.29-5.49,6-4.46s3.94,3.95,3.76,7.08a10.24,10.24,0,0,0,0,1.32C270,344.29,268.43,341,268.14,337.56Z" transform="translate(-109.77 -104.34)"/><path class="cls-37" d="M252.72,162.27c-1.49-.17-3-.36-4.33.55-.62,1.57-1.9,1.38-3.18,1.2l-2.83-.68c1.31-5.91,5.11-10.64,7.62-16s5.45-10.58,8.18-15.87c1.06-2.05,2.43-3.1,3.81-.48,5.45,10.38,10.76,20.84,16.09,31.29.19.39,0,1,0,1.47l-2.79.21c-1.24.24-2.41.32-3.07-1.08-1.22-1.1-2.68-.76-4.1-.69C263,163.19,257.84,162.53,252.72,162.27Z" transform="translate(-109.77 -104.34)"/><path class="cls-39" d="M175.45,316.07c-2.19.3-3.58-.34-3.85-2.41-.55-4.23-3.76-3.07-6.4-3.34s-4.11.62-4.42,3.27c-.4,3.37-3.18,2.83-4.95,2.38-2.8-.72-.65-2.69-.23-4,2.07-6.26,4.36-12.45,6.44-18.7.7-2.1,1.55-3.38,4.11-3.25,2.21.12,3.59.54,4.36,2.91,2.2,6.73,4.64,13.39,7,20.06C178.34,315.33,178.07,316.7,175.45,316.07Z" transform="translate(-109.77 -104.34)"/><path class="cls-40" d="M242.59,303.27c0-2.81.23-5.65-.05-8.43-.36-3.59.66-5.2,4.57-4.8a97.64,97.64,0,0,0,10.41.1c1.66,0,2.37.66,2.4,2.35s-.85,2.26-2.44,2.2c-1.82-.07-3.64,0-5.46,0-2-.05-3.81-.31-3.78,2.88,0,2.86,1.21,3.37,3.56,3.11a17.09,17.09,0,0,1,2.48,0c1.57,0,3.4-.54,3.33,2.24s-2,1.85-3.47,2.16c-1.91.41-4.49-1.44-5.69,1.33-1.33,3,.25,5.23,3.64,5.28,1.82,0,3.64.06,5.46,0,1.66-.06,2.41.58,2.36,2.31,0,1.47-.7,2.12-2.1,2.13-4.3,0-8.6,0-12.91.07-2.11,0-2.36-1.24-2.33-2.93C242.62,309.89,242.59,306.58,242.59,303.27Z" transform="translate(-109.77 -104.34)"/><path class="cls-41" d="M297.58,294.08c-2.66.18-4,.21-5.27.38s-2.23.63-2.39,2.08a2.46,2.46,0,0,0,1.67,2.72c2.12.91,4.31,1.64,6.42,2.59a6.59,6.59,0,0,1,4.34,6.54c0,3.13-1.22,5.53-4,6.92-4.06,2.05-8.29,1.66-12.55.51-1.83-.49-1.7-1.75-1.63-3.06.13-2.47,1.87-1.14,2.93-1.11,1.8,0,3.61.5,5.41.42,1.59-.07,3.44-.24,3.84-2.38s-1.12-2.88-2.72-3.51-3.39-1.29-5-2a7.1,7.1,0,0,1-4.61-7.43c.18-3.76,2.56-5.53,5.68-6.68,2.24-.83,4.61-.55,6.87-.24,2,.28,4.83.37,4.12,3.56C300.07,296.23,297.75,294,297.58,294.08Z" transform="translate(-109.77 -104.34)"/><path class="cls-42" d="M219.59,316.66a16.15,16.15,0,0,1-5.82-1c-1.84-.68-1.31-2.12-1.2-3.3.14-1.51,1.37-.88,2.29-.85,2.45.08,4.85,1.12,7.37.33,1.17-.37,2.21-.77,2.41-2.13a2.64,2.64,0,0,0-1.77-3.15c-2-.78-4-1.56-5.94-2.43-3.43-1.51-5-4.1-4.57-7.91s2.93-5.53,6.07-6.34a16.28,16.28,0,0,1,8.33.28c1.73.47,2.54,1.32,2.32,3.14-.28,2.24-1.87,1.32-3,1.28-2.82-.11-6.81-2-7.69,1.83-.83,3.6,3.58,3.54,6,4.49,4.32,1.72,7.06,4.22,6.13,9.29C229.68,314.35,226,316.67,219.59,316.66Z" transform="translate(-109.77 -104.34)"/><path class="cls-43" d="M275,297.17c0-2,.13-3.93,0-5.88-.18-2.17.59-2.81,2.77-2.81s2.72.95,2.69,3c-.09,7.27,0,14.54-.05,21.82,0,1.27.15,3.28-1.75,2.68-3.34-1.05-6.3.72-9.44.57-4.55-.2-7.41-4.23-7.31-10,.1-6,2.81-9.69,7.47-9.86A40.63,40.63,0,0,1,275,297.17Z" transform="translate(-109.77 -104.34)"/><path class="cls-44" d="M248.36,238a3.07,3.07,0,0,0,.45-.2c1.64-1.06,3.2-4.27,5.07-2.31,2.1,2.22-1.68,2.81-2.69,4.21-2.6,3.57-3.68,7.28-2.3,11.62,2.37,7.48,6.6,13.92,11.23,20.85,5.16-7.06,9.79-14,11.85-22.22,1.11-4.45-.5-8.51-4.23-11.44-1.09-.85-2.44-1.7-1.26-3.11s2.44.09,3.31.78c4.06,3.2,5.49,7.66,5.59,12.66-2.12,9.79-7.65,17.84-13.1,25.95-1.45,2.16-2.73,2-4.12-.05-4.55-6.71-9-13.5-11.83-21.16C244.26,248.05,245.26,242.9,248.36,238Z" transform="translate(-109.77 -104.34)"/><path class="cls-45" d="M335,308.14c0,1.16-.07,2.32,0,3.47.24,3.26-.05,5.9-4.4,3.94-1.49-.66-2.48.48-3.7.8-4.19,1.09-7.38-.51-8.16-4.07-.83-3.83,1.52-6.85,5.87-7.46a13.4,13.4,0,0,1,3,0c1.17.1,2.38.43,2.3-1.46-.06-1.28-.46-2.43-1.83-2.53a51.76,51.76,0,0,0-5.42.14c-.93,0-2.19,1.56-2.68-.53-.4-1.69.09-2.84,2-3.22,9.5-1.87,14.09-.57,13.07,9A18.67,18.67,0,0,0,335,308.14Z" transform="translate(-109.77 -104.34)"/><path class="cls-46" d="M306.39,306.58c-.56-1.78,1.42-4.7-2.12-6-.93-.33-.77-2.47-.18-2.49,4.19-.18,1.59-8.26,6.3-6,2.25,1.08,3.45,5,6.62,6.35a1.71,1.71,0,0,1-1.62,2.59c-5.25-.41-3,3.54-3.24,5.79s-1.17,5.43,3,5.16c1.63-.1,1.93.58,2,2,.1,1.58-.88,1.9-2.05,2.27-4.5,1.4-8.36-1.13-8.73-5.82C306.31,309.25,306.39,308.09,306.39,306.58Z" transform="translate(-109.77 -104.34)"/><path class="cls-47" d="M362.45,316.57c-3.78-.26-6.31-1.44-6.7-5.78-.33-3.64,2.27-8.19-2.77-10.75-.32-.16-.47-2.18.83-2.39,2.27-.38,2.22-2.14,2.55-3.69s.82-2.32,2.59-2.26,2.52.57,2.38,2.28c-.17,2,.43,3.19,2.74,2.9,1.58-.2,2.5.5,2.53,2.22,0,2-1.32,2-2.7,2-3.35-.14-2.73,2.37-2.51,4.13.3,2.34-1.69,5.61,2.11,6.72,1.46.42,3.67-.43,3.19,2.33C366.25,316.72,364,316.08,362.45,316.57Z" transform="translate(-109.77 -104.34)"/><path class="cls-48" d="M339.15,306.74c0-2.3.08-4.61,0-6.91-.14-3.38,2.75-4,4-2.6,2.14,2.32,3.26.61,4.81,0,1.09-.46,2.47-.95,3.21-.05.61.74.57,2.15.55,3.26-.05,1.8-1.53,1.41-2.59,1.37-3.46-.16-4.61,1.48-4.27,4.8.24,2.28,0,4.61.09,6.91.09,1.89-.58,2.72-2.54,2.63-1.7-.09-3.38.12-3.25-2.45.12-2.3,0-4.61,0-6.92Z" transform="translate(-109.77 -104.34)"/><path class="cls-49" d="M310.07,353.45c0,.66,0,1.33,0,2,.37,2.95-.85,4.69-3.87,3.91a108.37,108.37,0,0,0-12.08-1.92c-1.42-1-3.4-1.8-1.93-4.16,2.47-1.59,5.12.48,7.58-.37-2.36-.76-6.54.76-6.33-3.58s4-3.51,6.9-3.32a6.07,6.07,0,0,0,3.31-.88c2.5-.65,3.71.48,3.78,2.9a5.89,5.89,0,0,0,1.23,4Z" transform="translate(-109.77 -104.34)"/><path class="cls-50" d="M250.3,353.44c0,.34,0,.68,0,1-1.4,1.65-3.3.75-5,1a4.54,4.54,0,0,1-4.05,1.41c-2.33-.34-3.71.89-4.93,2.55h-2c.83-2.5-1.71-4-1.89-6.17,2.25-1.22,4.58.5,6.79-.31-1-.51-2.29-.19-3.43-.55-2-.64-3.15-2-2.92-4.06a2.88,2.88,0,0,1,3.64-2.54c4.35.77,6.82-.83,7.51-5.18l2.21-.16.52.46a35.4,35.4,0,0,1,1.42,9.13C248.32,351.71,248.67,352.87,250.3,353.44Z" transform="translate(-109.77 -104.34)"/><path class="cls-38" d="M292.21,353.38c-.27,1.78,1.37,2.66,1.93,4.06-3.88,2.48-8.51-1-12.62,1.7-1.28.85-3.55-1.15-3.36-3.66l.08-.08c2-1.73,4.45-1.18,6.76-1.28a7.41,7.41,0,0,0,4.65-.92,2.72,2.72,0,0,1,2-.22Z" transform="translate(-109.77 -104.34)"/><path class="cls-51" d="M240.21,178.09a28.54,28.54,0,0,1-7.82,12C232.4,182.06,233.38,180.55,240.21,178.09Z" transform="translate(-109.77 -104.34)"/><path class="cls-33" d="M236.36,359.42c-.29-2.76.52-4.66,3.7-3.82,1.86.48,3.52-.37,5.28-.14.73,2.43,1,4.46-2.7,4A52.59,52.59,0,0,0,236.36,359.42Z" transform="translate(-109.77 -104.34)"/><path class="cls-52" d="M278.46,212.09c-.16-3.29,2.4-2.43,3.63-1.82,2.12,1,4.74,1.42,6.25,3.58C284.86,214.32,281.46,214.27,278.46,212.09Z" transform="translate(-109.77 -104.34)"/><path class="cls-53" d="M242.1,166.12c-.43,3.74,1.89,7.89-1.65,11.16C241.1,173.58,238.44,169.38,242.1,166.12Z" transform="translate(-109.77 -104.34)"/><path class="cls-54" d="M228.41,210c1.22,3,3.85,2,6.1,2.13-.63,2.6-2.71,2-4.38,1.77C227.8,213.55,228.32,211.6,228.41,210Z" transform="translate(-109.77 -104.34)"/><path class="cls-55" d="M226.46,352.49c-2.22,1.94-2-.23-2-1.31-.09-3.7,0-7.41,0-12-3.62,2.51-4.17,5.89-6,8.37-1.6,2-2.78.74-4-.51a63.72,63.72,0,0,1-4.23-5.55c-1.38,4.21-.09,8.31-1.76,12-1.56.07-2-.89-2-2.21,0-5.48-.08-10.95,0-16.43,0-1.26-.16-2.79,1.77-3,1.57-.19,1.72,1,2.26,2.05,1.13,2.2,2.54,4.24,3.81,6.37.73,1.23.92,3.13,2.81,3,2.08-.1,2.21-2.19,3-3.58,1.25-2.21,1.54-5,4.17-6.33,1.39,1.83.69,4.38,2.14,6.19l0,1.84C225.21,345.09,226,348.79,226.46,352.49Z" transform="translate(-109.77 -104.34)"/><path class="cls-56" d="M244.07,340.61c.83,4.45.42,7.55-5.57,6.44-1.17-.21-4.59-1.89-4.65,1.57,0,2.81,2.5,2.95,4.79,3,1.41,0,3-.55,4.74,1-3.63,3.37-7.3,1.64-10.9.66a16.89,16.89,0,0,1-2.14-8.41c.11-3.6,1.58-6.22,4.87-7.06S242.18,336.4,244.07,340.61Z" transform="translate(-109.77 -104.34)"/><path class="cls-57" d="M304.22,345.52c-1.34,3.07-3.84,1.72-5.94,1.43s-3.79,0-3.95,2.34,2,2.08,3.54,2.27c1.89.23,3.88-.58,6.31.81-4,3.83-8.1,1.5-12,1h0c-2.43-3-2.62-6.48-2.1-10.11.44-3,2-5,5.07-5.72l1.9-.21c1.71-1,3.37-1.16,4.93.32.72,1.93,2.74,3.34,2.33,5.73A1.91,1.91,0,0,1,304.22,345.52Z" transform="translate(-109.77 -104.34)"/><path class="cls-58" d="M268.14,337.56c2.51,3.56,3,9.26,1.06,16-1.71-2.58-.89-5-1-7.28-.16-2.61.37-5.5-3.05-6.53s-3.27,2.41-4.84,3.72c-1.37,2.82.3,6.06-1.23,9.37-1.68-1.92-1.72-4-2-5.89-.88-5.91-.81-5.92-6.71-6.24a2,2,0,0,1-.28-2.33c1.88-1.57,3.89-2.38,6.25-1C260.2,340.77,264.21,336.13,268.14,337.56Z" transform="translate(-109.77 -104.34)"/><path class="cls-59" d="M278.16,353.5l-2-.23a1.61,1.61,0,0,1-.07-2,5.75,5.75,0,0,1,3.23-1c5.64-.83,6.44-2.26,4.46-8-2-2.74-4.11-.9-6.21-.21a2,2,0,0,1-1.93-.93c-.49-1.36-.57-2.66.62-3.74,4,.8,9-2.11,11.64,3.28,2.14,1.77,1.52,4.23,1.61,6.51-.11,2.62-.26,5.23-2.81,6.86C283.84,354.29,280.87,355.89,278.16,353.5Z" transform="translate(-109.77 -104.34)"/><path class="cls-60" d="M208.52,353.47c.39-4.78-.75-9.7.84-15,2.9,2.23,3.52,5.13,5.15,7.32,1.08,1.44,2,2.7,4,1.73-3.47,4.85-4.59-1.59-7.57-1.41C209.8,348.29,211.17,351.66,208.52,353.47Z" transform="translate(-109.77 -104.34)"/><path class="cls-61" d="M310.07,353.45l-1.93,0c-2.08-4.4-.56-9-.69-13.52-.08-2.92,3.36-1,4.72-2.32,1.2.08,2.54-.31,3.91,1.23C307.66,341.3,310.81,348.09,310.07,353.45Z" transform="translate(-109.77 -104.34)"/><path class="cls-62" d="M276.27,337.4c0,1.44.05,2.88.08,4.31a9,9,0,0,1,.06,9.45l-.24,2.11c-3,.22-1.95-2.08-2-3.43-.09-6.11,0-12.21,0-18.31C278.38,332.24,275.35,335.52,276.27,337.4Z" transform="translate(-109.77 -104.34)"/><path class="cls-63" d="M288.38,347.54q-.24-3.44-.46-6.86c2.28-1.39,4-4,7.28-3.13-4,2.75-4.5,6.74-3.81,11.1.25,1.58.56,3.16.84,4.73l-2.06.06C288.22,351.88,290,349.21,288.38,347.54Z" transform="translate(-109.77 -104.34)"/><path class="cls-64" d="M312.17,337.59c-5.2.93-4.13,5-4.15,8.44,0,2.46.08,4.93.12,7.4a4.61,4.61,0,0,1-1.83-5.12c.53-2-.25-2.72-2.09-2.79,0-.71.09-1.42.14-2.13.92,0,2.56.15,2.26-1C305.17,336.76,308.84,337.45,312.17,337.59Z" transform="translate(-109.77 -104.34)"/><path class="cls-50" d="M256.3,337.41l-6,1.37c-.47.3-.92.65-1.42.92-.83.32-1.42,1.38-2.53.82l-.07-.07c.43-1.59-.76-4.76,1.34-4.5C250.47,336.32,254.15,333.11,256.3,337.41Z" transform="translate(-109.77 -104.34)"/><path class="cls-65" d="M226.46,352.49a12.6,12.6,0,0,1,0-11.09C226.31,345.1,227.29,348.8,226.46,352.49Z" transform="translate(-109.77 -104.34)"/><path class="cls-65" d="M226.47,339.56c-1.94-1.64-2.91-3.61-2.14-6.19,1.35-1.35,2.1-.55,2.22.83A50.53,50.53,0,0,1,226.47,339.56Z" transform="translate(-109.77 -104.34)"/><path class="cls-63" d="M302,337.66l-4.93-.32C298.93,334.59,300.6,334.22,302,337.66Z" transform="translate(-109.77 -104.34)"/><path class="cls-66" d="M272.18,162.9c1,.41,2.31,0,3.07,1.08-.05,6.24-.14,12.48-.12,18.72,0,1.32-.05,4.11,1.68,3.15,4.39-2.44,4.46,1.47,5.39,3.3,1.9,3.72,5.53,6.49,6,11a1.74,1.74,0,0,1-2.14.09c-1.56-.17-1.93.71-2,2.07-.11,1.63.71,4.09-2.37,3.74-2.3-.26-3.39-1.9-3.44-4.13-.07-3,0-5.94,0-8.91,0-1.09.18-2.58-1.45-2.68s-1.64,1.39-1.69,2.48c-.1,2.14-.05,4.29,0,6.44,0,1.64-.24,3-2.35,2.92-1.65-.07-2.32-1-2.32-2.56,0-11.55.06-23.1.06-34.65C270.44,163.66,271.2,163.22,272.18,162.9Z" transform="translate(-109.77 -104.34)"/><path class="cls-67" d="M252.72,162.27c5.12-1.93,10.24-1.44,15.37-.06-1.19,7.34,0,14.72-.27,22.08-.19,4.84-1.14,9.72,0,14.59a1.68,1.68,0,0,1-.42,1.37c-3.51,3.35-7.82,1.11-11.73,1.43-2.71.22-3.17-2.38-3.16-4.67Q252.62,179.64,252.72,162.27Z" transform="translate(-109.77 -104.34)"/><path class="cls-68" d="M245.21,164c.8-1.09,2.07-.92,3.18-1.19a2.29,2.29,0,0,1,1.74,2.59c0,10.92,0,21.84,0,32.76,0,1.61.52,3.51-1.41,4.41-2.16,1-2.85-.73-3.7-2.19-.41-.7-1.09-1.45-2-.89s-.73,1.77-.68,2.71c.13,2.31-.4,3.8-3.17,3.87-3.35.08-2.7-2.08-2.6-4,1.37-.2,2.43-.67,2.77-2.25a5.11,5.11,0,0,1,3.2-4c3.27-.64,2.78-3.25,2.78-5.49C245.33,181.56,245.26,172.79,245.21,164Z" transform="translate(-109.77 -104.34)"/><path class="cls-69" d="M274.21,211c-9.59-2.71-19.17-2.31-28.75.05-.4-2.7.44-4.52,3.39-5,7.51-1.15,15-2.19,22.52,0C273.84,206.82,276.51,207.5,274.21,211Z" transform="translate(-109.77 -104.34)"/><path class="cls-70" d="M242.54,195.81c-.31,2-2.26,3.23-2.32,5.64-.12,4.6-2.09,2.25-3.65.61-.12-1.32-.5-2.34-2.16-1.93-.77.45-.54,2.46-1.73,1.76-1.41-.83-1-2.47-.25-3.81l4-6c2.9-2.1,4.41-.16,5.83,2Z" transform="translate(-109.77 -104.34)"/><path class="cls-71" d="M242.22,194.1c-1.93-.7-3.38-2.81-5.83-2a11.86,11.86,0,0,1,5.43-7.84C242.63,187.73,242.27,190.93,242.22,194.1Z" transform="translate(-109.77 -104.34)"/><path class="cls-72" d="M232.43,198.08c.24,1-.57,2.22.51,3,.18.13,1-.59,1.47-.92,0,2.15,0,4.3-.21,6.43-.11,1.08-1.36,2.88-2,1.23C231,204.76,230.2,201.25,232.43,198.08Z" transform="translate(-109.77 -104.34)"/><path class="cls-73" d="M286.07,200.2l2.14-.09c-.16,2.45.5,5-.95,8.32C285.64,205.2,286.5,202.59,286.07,200.2Z" transform="translate(-109.77 -104.34)"/><path class="cls-74" d="M260.24,256.82c2.33-5.24,6.65-9.11,2.7-14.64-.63-.88,0-1.57.66-2.05.87-.63,1.5,0,2,.65a8.48,8.48,0,0,1,1.64,7.93c-1.07,4-3.23,7.59-5.22,11.2-.67,1.2-1.94,2.43-3.05.68-2.82-4.45-5.76-8.92-6.25-14.37a5.73,5.73,0,0,1,.77-3.35c.77-1.2,1.11-3.78,3.31-2.64s0,2.39-.41,3.63C254.79,248.74,258,252.14,260.24,256.82Z" transform="translate(-109.77 -104.34)"/><path class="cls-75" d="M260.57,212.05a49.32,49.32,0,0,1,12.18,1.84,2.75,2.75,0,0,1,2.51,2.94c.5,6.07.42,6.32-5.48,5.13a49.37,49.37,0,0,0-20.61.32c-1.29.29-3.67,2.05-3.65-.67,0-2.49-2.32-6.18,1.91-7.59A39.24,39.24,0,0,1,260.57,212.05Z" transform="translate(-109.77 -104.34)"/><path class="cls-76" d="M249.47,225.62a37.2,37.2,0,0,1,21.29-.12C263.44,227.65,257,227.39,249.47,225.62Z" transform="translate(-109.77 -104.34)"/><path class="cls-77" d="M250.3,340.46c2.85-.42,6.46-2.92,7.65,1.94.7,2.88.4,6,.57,9.62,1.74-3.06-.43-6.19,1.76-8.51,0,2.31.09,4.63,0,6.93,0,1.21.67,3.17-1,3.4-2.06.27-1.75-1.88-2.14-3.22a4.79,4.79,0,0,0-.79-1.22,3,3,0,0,1-1.17-3c.59-2.62-.87-3.84-2.84-4.86l-1.8.15-.46-.25A1,1,0,0,1,250.3,340.46Z" transform="translate(-109.77 -104.34)"/><path class="cls-77" d="M246.35,340.52l2.07-1.89c1,4,0,8.06.41,11.7,0-1.83-.06-4.1,0-6.36,0-1-.48-2.45,1.37-2.52l.29.23c-.07,3.92-.15,7.84-.22,11.76-1.6.75-4,1.32-3.49-1.18C247.58,348.2,245.5,344.44,246.35,340.52Z" transform="translate(-109.77 -104.34)"/><path class="cls-1" d="M252.32,341.53c7.06-.29,2.84,5.17,4,7.88-.23,1.27-.66,2.34-2.18,1.27s-2.67-2.91-1.5-4.09C254.81,344.43,252.39,343.18,252.32,341.53Z" transform="translate(-109.77 -104.34)"/><path class="cls-78" d="M278.16,353.5c2.69,1.2,5.39-.37,8.08,0a1.18,1.18,0,0,1-.2,1.86h-7.8C278.21,354.77,278.19,354.14,278.16,353.5Z" transform="translate(-109.77 -104.34)"/><path class="cls-79" d="M246.92,159.91c2.18-4.27,3.77-7.88,5.8-11.21s12.46-3.65,14.75-.31a66.71,66.71,0,0,1,4.45,8.25c.85,1.71.62,3-1.76,2.52A50.62,50.62,0,0,0,246.92,159.91Z" transform="translate(-109.77 -104.34)"/><path class="cls-80" d="M255.78,142.89c1.46-2.86,2.71-5.29,4.16-8.1,2.27,2.37,3.14,5.13,4.73,8.1Z" transform="translate(-109.77 -104.34)"/><path class="cls-81" d="M166.16,296.16c.94,2.71,1.71,4.67,2.27,6.7.27,1,1.11,2.45-.4,3a5.79,5.79,0,0,1-3.81-.07c-1.4-.57-.55-2-.26-3C164.53,300.76,165.26,298.82,166.16,296.16Z" transform="translate(-109.77 -104.34)"/><path class="cls-82" d="M275,305.69c.13,3.59.81,6.94-3.57,6.67-3.75-.23-4.09-3.3-4.07-6.18s.49-5.39,4.13-5.54C276.21,300.45,274.8,304,275,305.69Z" transform="translate(-109.77 -104.34)"/><path class="cls-83" d="M327.18,307.88c1.4.15,2.77.14,2.81,2,.06,2.56-1.81,2.81-3.61,2.92-1.44.09-2.51-.53-2.46-2.28C324,308.29,325.64,308.13,327.18,307.88Z" transform="translate(-109.77 -104.34)"/><path class="cls-1" d="M286,355.4c.06-.62.13-1.24.2-1.86,1.78-1.62,1.82-3.86,2.14-6,3.22,1.17,1.14,3.95,1.79,5.9C289.78,356.17,287.66,355.25,286,355.4Z" transform="translate(-109.77 -104.34)"/><path class="cls-84" d="M240.51,341.34c.77.74,2.22,1.55.62,2.57a6.2,6.2,0,0,1-6.36.57c-1.62-.81-1.6-1.81-.39-3l.62.18a5,5,0,0,0,4.3.05A4.78,4.78,0,0,1,240.51,341.34Z" transform="translate(-109.77 -104.34)"/><path class="cls-84" d="M234.38,341.51c2-2.34,4-3.5,6.13-.17l-.24.23a5.12,5.12,0,0,1-5.64.17Z" transform="translate(-109.77 -104.34)"/><path class="cls-85" d="M297.66,345.18c-1.74-.21-3.4-.57-3.34-2.71s1.64-2.72,3.33-2.84c2.19-.17,4.08.82,4.11,3.12C301.8,345.44,298.75,343.82,297.66,345.18Z" transform="translate(-109.77 -104.34)"/><path class="cls-86" d="M250.23,341.45c-2,3.1,0,6.73-1.81,9.94V338.62l1.88.16v1.68C250.28,340.79,250.26,341.12,250.23,341.45Z" transform="translate(-109.77 -104.34)"/><path class="cls-87" d="M276.41,351.16l-.06-9.45,1.74-.27c2.06-2,4.13-1,6.2,0,3.29,2.11,1.76,5.26,1.22,7.79-.49,2.34-3,2.62-5.24,2.39C279,351.47,277.69,351.31,276.41,351.16Z" transform="translate(-109.77 -104.34)"/><path class="cls-32" d="M284.29,341.42c-2.06.51-4.13-.92-6.2,0Q281.18,337.09,284.29,341.42Z" transform="translate(-109.77 -104.34)"/><path class="cls-88" d="M257.28,187.1c-3.69-5.09-4.24-12.31-1.32-17,1.11-1.75,2.39-3.2,4.7-3s3.46,1.89,4.18,3.74c2.43,6.2,2.07,12-2.79,17.07C260.12,189.54,258.52,189.27,257.28,187.1Z" transform="translate(-109.77 -104.34)"/><path class="cls-89" d="M257.28,187.1a6.92,6.92,0,0,0,4.77.89c2.62,2.66,2.58,6.46,4,9.64.65,1.45-.66,2.17-2.24,2.42-6.33,1-7.62.07-7.49-6.33C256.38,191.51,255.42,189.07,257.28,187.1Z" transform="translate(-109.77 -104.34)"/><path class="cls-90" d="M234.63,341.74l5.64-.17C238.48,344.63,236.58,344.31,234.63,341.74Z" transform="translate(-109.77 -104.34)"/><path class="cls-91" d="M257.21,177.45c.34-2.68,0-6.87,3.13-6.76,2.82.1,2.94,4.28,2.87,7.07s-.12,6.93-3.16,6.8C257.23,184.44,257.46,180.21,257.21,177.45Z" transform="translate(-109.77 -104.34)"/></svg>