<svg id="Layer_1" data-name="Layer 1" xmlns="http://www.w3.org/2000/svg" viewBox="0 0 188.77 188.32"><defs><style>.cls-1{fill:#3f78b2;}.cls-2{fill:#60a6d5;}.cls-3{fill:#5490c4;}.cls-4{fill:#5a99ca;}.cls-5{fill:#4f89c0;}.cls-6{fill:#417fbc;}.cls-7{fill:#6d9ec4;}.cls-8{fill:#5297cc;}.cls-9{fill:#60a7d7;}.cls-10{fill:#6294be;}.cls-11{fill:#5d8ab2;}.cls-12{fill:#74afd2;}.cls-13{fill:#72aacf;}.cls-14{fill:#6490b9;}.cls-15{fill:#5f8db1;}.cls-16{fill:#5e88ae;}.cls-17{fill:#5f8abc;}.cls-18{fill:#74a6c7;}.cls-19{fill:#4c7abc;}.cls-20{fill:#6993a6;}.cls-21{fill:#7098b7;}.cls-22{fill:#e8f4f6;}.cls-23{fill:#ebf3f6;}.cls-24{fill:#e9f2f8;}.cls-25{fill:#e8f2f5;}.cls-26{fill:#e8f2f6;}.cls-27{fill:#eff6f8;}</style></defs><path class="cls-1" d="M376.07,276.89c-13.41,38.81-53.6,64.1-94.8,60.62-28.61-2.41-51.62-15.4-68.87-38.48a81.27,81.27,0,0,1-5-7.74c-.87-2.2,0-3.46,2.15-4.05,4,3.93,6.67,8.92,10.38,13.13,15.93,18.09,35.54,29.44,59.63,31.6,28.47,2.55,53-6.48,73.1-27.12,7.59-7.8,13.15-16.85,17.88-26.52,1.47-1.54,3.08-3,2.71-5.47a4.37,4.37,0,0,1,.31-1,8.62,8.62,0,0,1,1.1-1.91c.49-.61,1.09-1.07,1.9-.73a1.83,1.83,0,0,1,1.17,2.09A26.52,26.52,0,0,1,376.07,276.89Z" transform="translate(-193.94 -149.51)"/><path class="cls-2" d="M223.13,176.48c9-9.71,20.08-16.3,32.36-20.79,28.31-10.36,55.66-7.58,81.59,7.51a89.14,89.14,0,0,1,30.77,30,11.31,11.31,0,0,1,.81,2,4.18,4.18,0,0,1-4.36-2.15c-.15.7.91,1.85-.6,2.34-2.61-1.12-3.54-3.78-5.08-5.8-13.13-17.22-30.61-27.6-51.42-32.46a82.65,82.65,0,0,0-38.49.31,92.15,92.15,0,0,0-38.3,19.35c-.95.79-1.86,1.7-3.25,1.67C225.64,178.2,223.92,178.26,223.13,176.48Z" transform="translate(-193.94 -149.51)"/><path class="cls-3" d="M364.09,195.26c-.15-.72-.3-1.43-.56-2.69l5.13,2.69c9.45,15.41,14.39,32.09,14,50.21a92.57,92.57,0,0,1-5.29,29.29c-.28.77-.35,1.76-1.33,2.13-1-1.6,1-2.53.89-4-.08-1,.69-2.4-.54-2.91s-1.21,1.12-1.8,1.75c-.24.25-.52.47-.78.71-1.1-1.22-.64-2.54-.26-3.86,6.86-24.21,3.84-47.23-8.35-69.13C364.51,198.15,363.55,196.9,364.09,195.26Z" transform="translate(-193.94 -149.51)"/><path class="cls-4" d="M223.13,176.48c1.1.94,2.8.35,3.82,1.5.08,2.16-1.6,3.26-2.82,4.61-13,14.3-21.22,30.83-23.77,50.07-.23,1.74,0,3.5-.26,5.22-.15,1.05,0,2.63-1.93,2.15-1.37-3.12-.52-6.36-.46-9.62-2.09,7-.84,14.06-1.2,21.06-.1,1.81.45,3.77-1,5.32-2.14-7.85-1.69-15.78-.67-23.7,2.76-21.33,11.47-39.82,26.63-55.17C221.94,177.39,222.56,177,223.13,176.48Z" transform="translate(-193.94 -149.51)"/><path class="cls-5" d="M195.46,256.79c0-6.24.26-12.49-.07-18.71-.17-3.25,1.53-6.14,1.1-9.36-.06-.5.28-1.68,1.3-1.35a1.52,1.52,0,0,1,1,1.8,64.35,64.35,0,0,0-.21,11.19c1.88,3.7,1.06,7.78,1.52,11.66a95.3,95.3,0,0,0,8.72,30.63c.71,1.46,2.12,2.93.84,4.79-1,1.15-2.43,2-2.21,3.85A80.33,80.33,0,0,1,195.46,256.79Z" transform="translate(-193.94 -149.51)"/><path class="cls-3" d="M371.38,278.36c.69-2,.95-4.25,2.47-5.94C374.83,275.15,373.7,277,371.38,278.36Z" transform="translate(-193.94 -149.51)"/><path class="cls-6" d="M339.9,246.3l-1.34-1.45c.88-2.83,2.65-1.78,4.14-.79s2.35,2.43,3.57,3.62c2.33,2,2.8,4.74-.22,5.47-5.37,1.29-6.3,4.19-5.07,8.8-1.57,1.67-3.12,3.3-2.24,6a2.39,2.39,0,0,1-.88,2.27c-1.34,1.62-1,3.47-.69,5.31,1,5.39-2.65,9.71-8.06,9.35a23,23,0,0,1-6.6-1.09c-6.18-2.26-10.42.3-11.47,6.92a17.47,17.47,0,0,1-4,8.39c-.19-5.73-1.35-11.51.47-17.06,1.36-4.2,7.6-6.21,12.88-4.73,1.07.3,2.07.87,3.15,1.14,5.77,1.45,8.57-1.11,7.78-7a12.52,12.52,0,0,1,1.42-7.31c1-2.11,1.94-5.37,1.27-8s.19-3.75,2.31-4.61c.53-.39,1.16-.25,1.75-.34C341.39,250.58,341.94,249.13,339.9,246.3Z" transform="translate(-193.94 -149.51)"/><path class="cls-7" d="M265.82,235.66c0-4-3-5.73-5.89-6.69s-6.13-2.3-8.65,1.48a6.24,6.24,0,0,1-9.72,1.31,6.49,6.49,0,0,1,.07-9.61,6.32,6.32,0,0,1,9.71,1.06,4,4,0,0,0,4,2,12.57,12.57,0,0,1,11.51,5c1.63,2,3.56,2.64,6.17,2.64,17,0,33.95.23,50.93.43,1.09,0,3-.67,3,1.17s-2,1.44-3.27,1.44q-24.36,0-48.71-.12c-2.35,0-4.77-.34-6.8,1.33A9,9,0,0,1,265.82,235.66Z" transform="translate(-193.94 -149.51)"/><path class="cls-8" d="M346.27,247.68c-1.4-.31-2.17-1.36-3-2.39-1.34-1.58-3-2-4.67-.44-2.77-2.19-4.56-5.26-6.94-7.81-1.32-1.41-1.15-3.19-.86-5,1.69-10.13.61-19.63-6.39-27.77-1-2.23,0-3.11,2.08-2.77a8.07,8.07,0,0,1,6.16,4.16c.7,1.28,1.45,2.55,2.23,3.79,3.67,6.76,3.79,14.11,2.75,21.36-.64,4.43.31,7.64,3.44,10.67C343,243.37,345.2,245.05,346.27,247.68Z" transform="translate(-193.94 -149.51)"/><path class="cls-9" d="M334.84,209.49c-2.57-2.31-3.66-6.08-7.72-7-2.08-.47-2.77-.25-2.75,1.81-8.18-9.51-19.37-11.68-31.61-12.19C304.32,182.17,329.49,193,334.84,209.49Z" transform="translate(-193.94 -149.51)"/><path class="cls-10" d="M325.16,221.48c-1,1.05-2.36.6-3.55.61-10.6,0-21.2,0-31.8.07a8.79,8.79,0,0,1-7.05-2.74c-3.82-4.11-8.75-4.26-13.85-3.94-1.48.1-2.09,1.2-3,2.06-3.31,3.35-7.18,3.38-10.07.1-2.36-2.69-1.69-7.24,1.42-9.56a6.4,6.4,0,0,1,9.28,2.26,3.79,3.79,0,0,0,4.16,2.24c5.32-.56,10.13.2,13.88,4.62.87,1,2.6,1.33,3.93,2,.21,2.14,1.89,1.16,2.86,1.18,9.34.18,18.69.1,28,.08C321.4,220.41,323.48,220,325.16,221.48Z" transform="translate(-193.94 -149.51)"/><path class="cls-11" d="M265.82,235.66c1.53-.73,1.86.46,2.3,1.45-4.24,5.81-9.75,8.43-17.11,7.66-4.38-.46-8.94-1.13-12.26,3.77-1.74,2.57-6.36,1.49-8.59-1.12a6.36,6.36,0,0,1,.68-9c2.6-2.45,6.62-2.79,8.61.06,2.28,3.27,5.1,3.45,8.39,3.25a9,9,0,0,1,1.87,0C256.18,242.61,261.85,241.39,265.82,235.66Z" transform="translate(-193.94 -149.51)"/><path class="cls-12" d="M266.6,250.69c2.32-4,6.43-4.43,10.16-4.19,13.44.87,26.89.09,40.32.48,1.63,0,4.54-1.06,4.53,1.56,0,2.21-2.81,1.32-4.37,1.32-13.7,0-27.39.12-41.08-.15-3.54-.07-6,1.74-8.79,3.13C266.94,252.18,267.26,251.26,266.6,250.69Z" transform="translate(-193.94 -149.51)"/><path class="cls-13" d="M272.61,270.92a3.36,3.36,0,0,1,3.34-1.29c3.14.95,4.89-.82,6.62-2.88,3.85-4.63,8.65-6.55,14.79-6.25,8.34.4,16.71.08,25.07.1a14.6,14.6,0,0,1,3,.22,1.38,1.38,0,0,1,1.15,1.65c-.11.72-.72,1-1.37,1-.87.06-1.74.06-2.62.06-8.48,0-17,.25-25.43-.09A14.08,14.08,0,0,0,285,268.65c-.93,1.1-1.8,2.42-3.33,2.9-.89-1.6.75-2.05,1.24-2.85C279.3,272.22,276.9,272.76,272.61,270.92Z" transform="translate(-193.94 -149.51)"/><path class="cls-14" d="M266.6,250.69c1.94.11.7,1.37.77,2.15-1.21,1.4-2.36,2.87-3.65,4.2s-1.59,2.31-.81,4c1.51,3.22.27,6-2.34,7.86a6.55,6.55,0,0,1-9.71-7.88c1.33-3.08,3.73-4.75,7.13-4,1.7.36,2.58-.44,3.56-1.38C263.25,254,264.92,252.33,266.6,250.69Z" transform="translate(-193.94 -149.51)"/><path class="cls-15" d="M285.62,198.19c4.91,6.39,11.5,8.15,19.24,7.39a97.74,97.74,0,0,1,11.61,0c1.22,0,3.33-.62,3.1,1.5s-2.15,1.39-3.56,1.06c-.55-.91-1.46-.85-2.32-.85-7,.07-13.94-.21-20.91.15-3.62-.72-5.39-3.81-7.74-6.12-1.31-1.28-2.38-2-4.49-1.62-3.39.67-6-.77-7.17-4.31-.36-1.17-.88-2.57.47-3.25,1.06-.54,1.67.63,2.16,1.49,1.95,4.39,4.92,1.86,7.63,1.12C286,194.94,284.29,197.41,285.62,198.19Z" transform="translate(-193.94 -149.51)"/><path class="cls-16" d="M272.61,270.92c4.94.61,9.39-.05,12.28-5-.08,2.74-3.05,3.34-3.27,5.67a1.06,1.06,0,0,0-.39,1.3c2,4.29,1.45,7.39-1.76,9.27a6.86,6.86,0,0,1-8.89-2.13C268.61,277.05,269.37,273.65,272.61,270.92Z" transform="translate(-193.94 -149.51)"/><path class="cls-17" d="M325.16,221.48c-12.59-.07-25.17-.13-37.76-.25a1.38,1.38,0,0,1-1.39-1c.48-1.23,1.65-.8,2.55-1l4.37,0c4.4,1,8.85.38,13.27.38,4.05,0,8.14.62,12.16-.38,1.82,0,3.64-.16,5.46-.08C325.35,219.17,326.57,219.64,325.16,221.48Z" transform="translate(-193.94 -149.51)"/><path class="cls-18" d="M275.61,194.54c-.86-.35-.45-2.07-1.47-1.81-1.21.32-.41,1.75-.76,2.62-1.65-3.22.11-5.45,2.38-7.31a5.66,5.66,0,0,1,6.9-.33c2.47,1.59,4.18,3.95,3.19,7.21a7,7,0,0,0-.24,3.27c-1.52-.45-.44-3.16-2.63-3-.55-.55-.56-1.34-.86-2-1.26-2.7-3.56-2.87-5.29-.4C276.41,193.35,276.3,194.14,275.61,194.54Z" transform="translate(-193.94 -149.51)"/><path class="cls-19" d="M292.78,207.4c.65-1,1.67-.9,2.65-.9,6.3,0,12.59,0,18.89.06.68,0,3-1,1.69,1.54-6.57,0-13.13.08-19.69.08C295.11,208.18,293.82,208.28,292.78,207.4Z" transform="translate(-193.94 -149.51)"/><path class="cls-20" d="M318.36,219.18c-.57.88-1.47.78-2.33.79H295.25c-.85,0-1.76.1-2.32-.78Z" transform="translate(-193.94 -149.51)"/><path class="cls-21" d="M337.86,270.18c.16-3.08-.75-6.56,3.12-8.23-.22,1.82-3.06,3.1-.64,5.61C341.28,268.53,339.44,269.94,337.86,270.18Z" transform="translate(-193.94 -149.51)"/><path class="cls-8" d="M339.9,246.3c1.52.41,2.38,1.49,1.87,2.92-.41,1.18-1.22,2.42-2.92,2.26-.84-.08-1.69,0-2.54,0,.56-.84,1.51-.71,2.31-.93C341.22,249.76,341.06,248.19,339.9,246.3Z" transform="translate(-193.94 -149.51)"/><path class="cls-22" d="M249.58,227c-.19,2.24-1.37,3.66-3.78,3.48-2.24-.17-3.77-1.64-3.64-3.86a3.66,3.66,0,0,1,3.93-3.6C248.56,223,249.5,224.62,249.58,227Z" transform="translate(-193.94 -149.51)"/><path class="cls-23" d="M264.61,213.39c-.12,2.17-1.21,3.65-3.63,3.64a3.61,3.61,0,0,1-3.84-3.69c-.06-2.25,1.5-3.64,3.76-3.76C263.34,209.45,264.47,210.9,264.61,213.39Z" transform="translate(-193.94 -149.51)"/><path class="cls-24" d="M239,243.39c-.46,2.05-1.65,3.64-3.94,3.49a3.62,3.62,0,0,1-3.58-3.95c0-2.45,1.56-3.59,3.83-3.54S238.75,241,239,243.39Z" transform="translate(-193.94 -149.51)"/><path class="cls-25" d="M253.19,263.88c.05-2.81,1.19-4.18,3.59-4.2s3.81,1.05,3.83,3.51a3.73,3.73,0,0,1-7.42.69Z" transform="translate(-193.94 -149.51)"/><path class="cls-26" d="M275.61,194.54c0-2.86.92-5,4.32-4.64s3.36,2.73,3.05,5.25C279.67,198.29,278.12,198.16,275.61,194.54Z" transform="translate(-193.94 -149.51)"/><path class="cls-27" d="M272.47,276.15c.29-2.11,1.11-3.81,3.47-3.57,2.15.22,3.64,1.28,3.52,3.91-.11,2.36-1.21,3.5-3.43,3.51C273.5,280,272.6,278.38,272.47,276.15Z" transform="translate(-193.94 -149.51)"/></svg>