<svg id="Layer_1" data-name="Layer 1" xmlns="http://www.w3.org/2000/svg" viewBox="0 0 225 225"><defs><style>.cls-1{fill:#fff;}.cls-2{fill:#3f78b2;}.cls-3{fill:#60a6d5;}.cls-4{fill:#5490c4;}.cls-5{fill:#5a99ca;}.cls-6{fill:#4f89c0;}.cls-7{fill:#417fbc;}.cls-8{fill:#6d9ec4;}.cls-9{fill:#5297cc;}.cls-10{fill:#60a7d7;}.cls-11{fill:#6294be;}.cls-12{fill:#5d8ab2;}.cls-13{fill:#74afd2;}.cls-14{fill:#72aacf;}.cls-15{fill:#6490b9;}.cls-16{fill:#5f8db1;}.cls-17{fill:#5e88ae;}.cls-18{fill:#5f8abc;}.cls-19{fill:#74a6c7;}.cls-20{fill:#4c7abc;}.cls-21{fill:#6993a6;}.cls-22{fill:#7098b7;}.cls-23{fill:#e8f4f6;}.cls-24{fill:#ebf3f6;}.cls-25{fill:#e9f2f8;}.cls-26{fill:#e8f2f5;}.cls-27{fill:#e8f2f6;}.cls-28{fill:#eff6f8;}</style></defs><path class="cls-1" d="M178,382.13q0-110.94-.07-221.86c0-2.57.5-3.07,3.07-3.07q109.43.13,218.86,0c2.56,0,3.07.5,3.07,3.07q-.13,109.42,0,218.86c0,2.56-.51,3.07-3.07,3.07Q288.93,382.07,178,382.13Z" transform="translate(-177.94 -157.2)"/><path class="cls-2" d="M381.07,301.12c-13.4,38.81-53.59,64.1-94.79,60.62-28.61-2.41-51.63-15.4-68.88-38.48a83.18,83.18,0,0,1-5-7.74c-.87-2.2,0-3.46,2.15-4,4,3.93,6.67,8.92,10.38,13.13C240.9,342.69,260.5,354,284.6,356.2c28.47,2.55,53-6.48,73.09-27.12,7.59-7.8,13.16-16.85,17.89-26.52,1.47-1.54,3.08-3,2.7-5.47a5.68,5.68,0,0,1,.31-1,9.07,9.07,0,0,1,1.11-1.91c.48-.61,1.08-1.07,1.89-.73a1.81,1.81,0,0,1,1.17,2.09A25.39,25.39,0,0,1,381.07,301.12Z" transform="translate(-177.94 -157.2)"/><path class="cls-3" d="M228.14,200.71c9-9.71,20.08-16.3,32.35-20.79,28.32-10.36,55.67-7.58,81.59,7.51a89.08,89.08,0,0,1,30.78,30,12.1,12.1,0,0,1,.81,2,4.17,4.17,0,0,1-4.36-2.14c-.16.69.91,1.84-.6,2.33-2.61-1.12-3.55-3.78-5.09-5.8-13.13-17.22-30.6-27.6-51.41-32.46a82.65,82.65,0,0,0-38.49.31,92.15,92.15,0,0,0-38.3,19.35c-.95.79-1.86,1.7-3.25,1.67C230.65,202.43,228.93,202.49,228.14,200.71Z" transform="translate(-177.94 -157.2)"/><path class="cls-4" d="M369.1,219.49c-.15-.72-.3-1.43-.56-2.69l5.13,2.69c9.45,15.41,14.39,32.09,14,50.21A92,92,0,0,1,382.4,299c-.27.77-.34,1.76-1.32,2.13-1-1.6,1-2.53.88-4-.08-1,.7-2.4-.53-2.91s-1.21,1.12-1.8,1.75c-.24.25-.52.48-.79.71-1.1-1.22-.63-2.54-.25-3.86,6.86-24.21,3.84-47.23-8.36-69.13C369.52,222.38,368.56,221.13,369.1,219.49Z" transform="translate(-177.94 -157.2)"/><path class="cls-5" d="M228.14,200.71c1.1.94,2.8.35,3.81,1.5.08,2.16-1.59,3.26-2.82,4.61-13,14.3-21.22,30.83-23.76,50.08-.23,1.73,0,3.49-.26,5.21-.16,1.05,0,2.63-1.93,2.15-1.37-3.12-.53-6.36-.46-9.62-2.09,7-.84,14.06-1.21,21.06-.09,1.81.45,3.77-1,5.32-2.14-7.85-1.68-15.78-.66-23.7,2.75-21.33,11.46-39.82,26.63-55.17C227,201.62,227.57,201.19,228.14,200.71Z" transform="translate(-177.94 -157.2)"/><path class="cls-6" d="M200.46,281c0-6.24.27-12.49-.06-18.71-.18-3.25,1.53-6.14,1.1-9.36-.07-.5.27-1.68,1.3-1.35a1.52,1.52,0,0,1,1,1.8,64.35,64.35,0,0,0-.2,11.19c1.87,3.7,1.06,7.78,1.51,11.66a95.31,95.31,0,0,0,8.73,30.63c.71,1.46,2.11,2.93.83,4.79-1,1.15-2.43,2-2.2,3.85A80.47,80.47,0,0,1,200.46,281Z" transform="translate(-177.94 -157.2)"/><path class="cls-1" d="M214.64,311.67c-2-5.6-4.95-10.81-6.72-16.53a100.13,100.13,0,0,1-4.35-30.55c1.1-4.47,1-9.08,1.88-13.62,3.36-17.83,11.77-32.87,24.14-45.91.85-.89,1.58-1.9,2.36-2.85,3.37-2.5,6.69-5.06,10.12-7.48a86.13,86.13,0,0,1,30-13.63c7.42-1.77,14.9-3.08,22.52-2.74,30.84,1.37,55.54,14.12,73.18,39.81a10,10,0,0,0,1.29,1.32c5.43,9.68,10.19,19.58,12.29,30.63,2.82,14.86,2.45,29.49-2.18,44a15.45,15.45,0,0,0-.37,2.57h0c-.71,2-1,4.24-2.46,5.94a89.43,89.43,0,0,1-22.84,31.88c-20.4,18.09-44.23,25.58-71.23,22.37-23.91-2.85-43.27-14.19-58.72-32.55A84.66,84.66,0,0,1,214.64,311.67Z" transform="translate(-177.94 -157.2)"/><path class="cls-4" d="M376.39,302.59c.69-2,.95-4.25,2.46-5.94C379.84,299.38,378.71,301.23,376.39,302.59Z" transform="translate(-177.94 -157.2)"/><path class="cls-7" d="M344.9,270.53l-1.33-1.45c.88-2.83,2.65-1.78,4.13-.79s2.36,2.43,3.57,3.62c2.34,2,2.81,4.74-.22,5.47-5.36,1.29-6.29,4.19-5.06,8.8-1.57,1.67-3.13,3.3-2.25,6a2.35,2.35,0,0,1-.88,2.27c-1.33,1.62-1,3.47-.69,5.31,1,5.39-2.65,9.71-8.06,9.35a23,23,0,0,1-6.6-1.09c-6.17-2.26-10.41.3-11.47,6.92a17.36,17.36,0,0,1-4,8.39c-.2-5.73-1.35-11.51.46-17.06,1.37-4.2,7.61-6.21,12.88-4.73,1.08.3,2.08.87,3.15,1.14,5.77,1.45,8.57-1.11,7.78-7a12.53,12.53,0,0,1,1.43-7.31c1-2.11,1.94-5.37,1.27-8s.19-3.75,2.3-4.61c.54-.39,1.17-.25,1.76-.34C346.39,274.81,346.94,273.36,344.9,270.53Z" transform="translate(-177.94 -157.2)"/><path class="cls-8" d="M270.83,259.89c0-4-3-5.73-5.89-6.69s-6.14-2.3-8.66,1.48a6.24,6.24,0,0,1-9.72,1.31,6.49,6.49,0,0,1,.08-9.61,6.32,6.32,0,0,1,9.71,1.06,4,4,0,0,0,4,2,12.58,12.58,0,0,1,11.51,5c1.62,2,3.56,2.64,6.16,2.64,17,0,34,.23,50.93.43,1.09,0,3-.67,3,1.17s-2,1.44-3.27,1.44q-24.35,0-48.7-.12c-2.35,0-4.77-.34-6.8,1.33A9,9,0,0,1,270.83,259.89Z" transform="translate(-177.94 -157.2)"/><path class="cls-9" d="M351.27,271.91c-1.39-.31-2.16-1.36-3-2.39-1.34-1.58-2.95-2-4.67-.44-2.77-2.19-4.56-5.26-6.94-7.81-1.32-1.41-1.15-3.19-.86-5,1.69-10.13.6-19.63-6.39-27.77-1-2.22,0-3.11,2.08-2.77a8.07,8.07,0,0,1,6.16,4.16c.7,1.28,1.44,2.55,2.22,3.79,3.68,6.76,3.8,14.11,2.76,21.36-.64,4.43.31,7.64,3.44,10.67C348,267.6,350.21,269.28,351.27,271.91Z" transform="translate(-177.94 -157.2)"/><path class="cls-10" d="M339.84,233.72c-2.56-2.31-3.65-6.08-7.71-7-2.08-.47-2.78-.25-2.75,1.81C321.2,219,310,216.86,297.77,216.35,309.33,206.4,334.5,217.24,339.84,233.72Z" transform="translate(-177.94 -157.2)"/><path class="cls-11" d="M330.17,245.71c-1,1-2.36.6-3.55.61-10.6,0-21.2,0-31.8.07a8.82,8.82,0,0,1-7.05-2.73c-3.82-4.12-8.75-4.27-13.85-3.95-1.48.1-2.09,1.2-2.95,2.06-3.32,3.35-7.18,3.38-10.07.1-2.37-2.69-1.69-7.24,1.42-9.56a6.4,6.4,0,0,1,9.28,2.26,3.79,3.79,0,0,0,4.16,2.24c5.31-.56,10.13.2,13.88,4.62.87,1,2.59,1.33,3.93,2,.21,2.14,1.88,1.16,2.86,1.18,9.34.18,18.69.1,28,.08C326.41,244.64,328.49,244.18,330.17,245.71Z" transform="translate(-177.94 -157.2)"/><path class="cls-12" d="M270.83,259.89c1.53-.73,1.85.46,2.3,1.45-4.25,5.81-9.75,8.43-17.11,7.66-4.38-.46-8.95-1.13-12.26,3.77-1.74,2.57-6.37,1.49-8.59-1.12a6.37,6.37,0,0,1,.67-9c2.61-2.45,6.62-2.79,8.62.06,2.28,3.27,5.1,3.45,8.39,3.25a9,9,0,0,1,1.87,0C261.19,266.84,266.85,265.62,270.83,259.89Z" transform="translate(-177.94 -157.2)"/><path class="cls-13" d="M271.61,274.92c2.32-4,6.42-4.43,10.16-4.19,13.44.87,26.88.09,40.32.48,1.63,0,4.53-1.06,4.53,1.56,0,2.21-2.81,1.32-4.38,1.32-13.69.05-27.39.12-41.07-.15-3.54-.07-6,1.74-8.79,3.13C271.94,276.41,272.26,275.49,271.61,274.92Z" transform="translate(-177.94 -157.2)"/><path class="cls-14" d="M277.61,295.15a3.38,3.38,0,0,1,3.35-1.29c3.13.95,4.89-.82,6.61-2.88,3.86-4.63,8.66-6.55,14.8-6.25,8.34.4,16.71.08,25.06.1a14.75,14.75,0,0,1,3,.22,1.38,1.38,0,0,1,1.15,1.65c-.11.72-.72,1-1.37,1-.87.06-1.75.06-2.62.06-8.48,0-17,.25-25.44-.09A14.07,14.07,0,0,0,290,292.88c-.94,1.1-1.8,2.42-3.33,2.9-.89-1.6.75-2,1.24-2.85C284.31,296.45,281.9,297,277.61,295.15Z" transform="translate(-177.94 -157.2)"/><path class="cls-15" d="M271.61,274.92c1.94.11.69,1.37.77,2.15-1.21,1.4-2.36,2.87-3.65,4.2a3.12,3.12,0,0,0-.81,4c1.51,3.22.27,6-2.35,7.86a6.54,6.54,0,0,1-9.7-7.88c1.33-3.08,3.73-4.75,7.13-4,1.7.36,2.58-.44,3.56-1.38C268.26,278.22,269.93,276.56,271.61,274.92Z" transform="translate(-177.94 -157.2)"/><path class="cls-16" d="M290.62,222.42c4.92,6.39,11.51,8.15,19.25,7.39a97.73,97.73,0,0,1,11.61,0c1.22,0,3.33-.62,3.1,1.5s-2.15,1.39-3.57,1.06c-.54-.91-1.46-.85-2.32-.85-7,.07-13.94-.21-20.9.15-3.62-.72-5.4-3.81-7.75-6.12-1.3-1.28-2.38-2-4.49-1.62-3.39.67-6-.77-7.16-4.31-.36-1.17-.88-2.57.47-3.25,1.06-.54,1.67.63,2.16,1.49,2,4.39,4.92,1.86,7.63,1.12C291,219.17,289.3,221.64,290.62,222.42Z" transform="translate(-177.94 -157.2)"/><path class="cls-17" d="M277.61,295.15c4.94.61,9.4,0,12.29-5-.09,2.74-3.06,3.34-3.27,5.67a1.06,1.06,0,0,0-.39,1.3c2,4.29,1.45,7.39-1.76,9.27a6.86,6.86,0,0,1-8.89-2.13C273.62,301.28,274.38,297.88,277.61,295.15Z" transform="translate(-177.94 -157.2)"/><path class="cls-18" d="M330.17,245.71q-18.89-.11-37.76-.24a1.4,1.4,0,0,1-1.39-1.05c.48-1.23,1.65-.8,2.55-1l4.37,0c4.39,1,8.85.38,13.27.38,4,0,8.13.62,12.15-.38,1.82,0,3.65-.16,5.46-.08C330.35,243.4,331.57,243.87,330.17,245.71Z" transform="translate(-177.94 -157.2)"/><path class="cls-19" d="M280.62,218.77c-.86-.35-.45-2.07-1.48-1.81-1.2.32-.4,1.75-.75,2.62-1.65-3.22.11-5.45,2.38-7.31a5.66,5.66,0,0,1,6.9-.33c2.47,1.59,4.18,3.95,3.18,7.21a7,7,0,0,0-.23,3.27c-1.52-.45-.44-3.16-2.64-3-.54-.55-.55-1.34-.86-2-1.26-2.7-3.55-2.87-5.28-.4C281.42,217.58,281.3,218.37,280.62,218.77Z" transform="translate(-177.94 -157.2)"/><path class="cls-20" d="M297.79,231.63c.64-1,1.67-.9,2.65-.9,6.3,0,12.59,0,18.89.06.67,0,3-1,1.68,1.54-6.56,0-13.12.08-19.69.08C300.11,232.41,298.83,232.51,297.79,231.63Z" transform="translate(-177.94 -157.2)"/><path class="cls-21" d="M323.36,243.41c-.56.88-1.47.79-2.32.79H300.26c-.85,0-1.76.11-2.32-.78Z" transform="translate(-177.94 -157.2)"/><path class="cls-22" d="M342.86,294.41c.17-3.08-.74-6.56,3.13-8.23-.22,1.82-3.07,3.1-.64,5.61C346.29,292.76,344.45,294.17,342.86,294.41Z" transform="translate(-177.94 -157.2)"/><path class="cls-9" d="M344.9,270.53c1.53.41,2.38,1.49,1.88,2.92-.41,1.18-1.22,2.43-2.92,2.26-.84-.08-1.7,0-2.54,0,.55-.84,1.5-.7,2.31-.93C346.23,274,346.07,272.42,344.9,270.53Z" transform="translate(-177.94 -157.2)"/><path class="cls-23" d="M254.59,251.22c-.19,2.24-1.37,3.66-3.78,3.48-2.25-.17-3.77-1.64-3.64-3.86a3.67,3.67,0,0,1,3.92-3.6C253.56,247.25,254.5,248.85,254.59,251.22Z" transform="translate(-177.94 -157.2)"/><path class="cls-24" d="M269.61,237.62c-.11,2.17-1.2,3.65-3.62,3.64a3.6,3.6,0,0,1-3.84-3.69c-.07-2.25,1.49-3.64,3.76-3.76C268.35,233.68,269.47,235.13,269.61,237.62Z" transform="translate(-177.94 -157.2)"/><path class="cls-25" d="M244,267.62c-.46,2.05-1.66,3.64-3.94,3.49a3.62,3.62,0,0,1-3.58-3.95c0-2.45,1.56-3.59,3.83-3.54S243.75,265.25,244,267.62Z" transform="translate(-177.94 -157.2)"/><path class="cls-26" d="M258.19,288.11c.06-2.81,1.2-4.18,3.6-4.2s3.81,1,3.83,3.51a3.74,3.74,0,0,1-7.43.69Z" transform="translate(-177.94 -157.2)"/><path class="cls-27" d="M280.62,218.77c0-2.86.91-5,4.31-4.64s3.36,2.73,3.05,5.25C284.67,222.52,283.13,222.39,280.62,218.77Z" transform="translate(-177.94 -157.2)"/><path class="cls-28" d="M277.47,300.38c.29-2.11,1.12-3.81,3.48-3.57,2.15.22,3.63,1.28,3.51,3.91-.1,2.36-1.2,3.5-3.42,3.51C278.51,304.24,277.6,302.61,277.47,300.38Z" transform="translate(-177.94 -157.2)"/></svg>